<svg xmlns="http://www.w3.org/2000/svg" width="300" height="300" shape-rendering="geometricPrecision" image-rendering="optimizeQuality" fill-rule="evenodd" xmlns:v="https://vecta.io/nano"><style><![CDATA[.B{opacity:.004}.C{opacity:.006}.D{opacity:.008}.E{fill:#ef4b4c}.F{opacity:.005}.G{fill:#f04b4c}]]></style><path fill="#ee4c4c" d="M183.5 34.5c-.667-1.333-.667-1.333 0 0z" class="D"/><path fill="#ef4c4b" d="M188.5 39.5h-1c.333-2.667.667-2.667 1 0z" class="C"/><path fill="#ef4b4b" d="M188.5 39.5c1.073.751 1.24 1.751.5 3-.483-.948-.649-1.948-.5-3z" class="F"/><path d="M188.5 49.5c-.149-1.052.017-2.052.5-3 .74 1.249.573 2.249-.5 3z" class="F G"/><path fill="#ef4c4c" d="M187.5 49.5h1c.172.992-.162 1.658-1 2v-2z" class="B"/><path fill="#ef4c4b" d="M186.5 51.5h1c-.185.67-.519.67-1 0z" class="B"/><path d="M183.5 34.5l4 5v10c-.838.342-1.172 1.008-1 2-1.333.333-1.333.667 0 1l-5.5 5c-.308-.808-.808-1.475-1.5-2a307.16 307.16 0 0 0-1 35c-3.768 1.287-7.435 1.287-11 0a307.16 307.16 0 0 0-1-35c-14.157 1.96-28.491 2.626-43 2a225.77 225.77 0 0 0 1 30c5.118.844 10.118 1.178 15 1v1c-22.667.333-22.667.667 0 1 3.565 1.287 7.232 1.287 11 0 10.354 1.832 18.521 7.165 24.5 16a54.63 54.63 0 0 1 2 7 2861.07 2861.07 0 0 1 0 107c-3.075 9.409-9.241 15.909-18.5 19.5-18.972 1.833-37.972 1.999-57 .5-1.705-1.035-3.372-1.035-5 0l-3-4c0-.667-.333-1-1-1 0-.667-.333-1-1-1 0-.667-.333-1-1-1 0-.667-.333-1-1-1-.333-1.333-.667-1.333-1 0-1.867-1.26-3.201-2.927-4-5 .597-.235.93-.735 1-1.5-1.314-3.383-2.147-6.883-2.5-10.5a2401.13 2401.13 0 0 1 0-98c.353-3.617 1.186-7.117 2.5-10.5-.07-.765-.403-1.265-1-1.5.257-2.276 1.59-3.443 4-3.5-.951-.718-1.117-1.551-.5-2.5 2.825-3.291 5.992-5.291 9.5-6l1-2 2 1c3.561-1.261 7.228-2.094 11-2.5-6.97-.669-7.304-1.169-1-1.5-.32-10.915.013-21.748 1-32.5-1.244-.456-2.077.044-2.5 1.5-3.833-2.5-7-5.667-9.5-9.5a4.45 4.45 0 0 0 2-1.5c-1.333-1.333-1.333-2.667 0-4a4.45 4.45 0 0 0-2-1.5c1.287-1.41 2.454-2.91 3.5-4.5.914 1.154 1.747.987 2.5-.5-1.333-.667-1.333-1.333 0-2 .949-.617 1.782-.451 2.5.5.374-.916.874-1.75 1.5-2.5 23.667-.667 47.333-.667 71 0a26.6 26.6 0 0 0 2 3.5c.607-.124.94-.457 1-1zm-16 56h-17v-1a128.43 128.43 0 0 0 16-.5l-1.5-1.5c-4.922.821-9.755 1.155-14.5 1-.236-3.109.097-6.109 1-9 1.879.107 2.212-.393 1-1.5 1.136-1.145 2.136-2.312 3-3.5.315-1.726.481-3.392.5-5l-1 1a10.5 10.5 0 0 1-3.5-5 4.85 4.85 0 0 0-4-1h-10c.271 1.88-.396 3.213-2 4-1.656 3.858-.989 7.191 2 10 .739-.131 1.406.036 2 .5-.178 2.955-.178 6.121 0 9.5-4.882.178-9.882-.156-15-1a225.77 225.77 0 0 1-1-30c14.509.626 28.843-.04 43-2a307.16 307.16 0 0 1 1 35z" opacity=".973" class="E"/><path fill="#d5e5f1" d="M147.5 64.5v1a24.94 24.94 0 0 0-7 .5c1.973.496 3.973.662 6 .5 1.386 1.744 2.386 3.744 3 6-.481 2.814-2.148 4.148-5 4v14h-5v-1-1c-.178-3.379-.178-6.545 0-9.5-.594-.464-1.261-.631-2-.5-2.989-2.809-3.656-6.142-2-10 1.604-.787 2.271-2.12 2-4h10z" opacity=".867"/><path fill="#b5c6db" d="M147.5 65.5v-1a4.85 4.85 0 0 1 4 1 10.5 10.5 0 0 0 3.5 5l1-1c-.019 1.608-.185 3.274-.5 5-.864 1.188-1.864 2.355-3 3.5 1.212 1.107.879 1.607-1 1.5-.903 2.891-1.236 5.891-1 9v1 1c-3.768 1.287-7.435 1.287-11 0h5v-14c2.852.148 4.519-1.186 5-4-.614-2.256-1.614-4.256-3-6 4.338-.122 4.672-.455 1-1z" opacity=".609"/><path fill="#df3743" d="M150.5 89.5v-1c4.745.155 9.578-.179 14.5-1l1.5 1.5a128.43 128.43 0 0 1-16 .5z" class="D"/><path fill="#e23540" d="M179.5 89.5c1.101-1.098 2.434-1.265 4-.5-1.293.49-2.627.657-4 .5z" opacity=".01"/><path fill="#dd2e3d" d="M184.5 90.5c.751-1.073 1.751-1.24 3-.5a4.93 4.93 0 0 1-3 .5z" class="D"/><path fill="#e13340" d="M150.5 90.5h17c3.565 1.287 7.232 1.287 11 0h6c2.281.838 4.615 1.838 7 3 2.284-.916 3.451.084 3.5 3l1-2c2.158 1.326 3.992 2.993 5.5 5-1.411 1.517-1.244 2.851.5 4l1-2 4.5 8-2 1a1568.89 1568.89 0 0 1 0 112l2 1a6.8 6.8 0 0 1-3 1.5l2 1c-1.896 3.04-3.896 5.206-6 6.5-.667 0-1 .333-1 1-.667 0-1 .333-1 1-.667 0-1 .333-1 1-3.024.447-3.357 1.28-1 2.5a16.58 16.58 0 0 0-4 2.5c-.667-1.333-1.333-1.333-2 0-1.175-.219-2.175.114-3 1 1.117 4.641 1.117 9.308 0 14-1.333.667-1.333 1.333 0 2-2.049 4.695-5.383 6.028-10 4 .541-5.419-1.793-8.919-7-10.5l-70-.5c.277-2.948-.056-5.781-1-8.5.916-.278 1.582-.778 2-1.5 19.028 1.499 38.028 1.333 57-.5 9.259-3.591 15.425-10.091 18.5-19.5a2861.07 2861.07 0 0 0 0-107 54.63 54.63 0 0 0-2-7c-5.979-8.835-14.146-14.168-24.5-16z" opacity=".961"/><path fill="#ee4b4b" d="M84.5 105.5c.131.739-.036 1.406-.5 2-.692-.937-.525-1.603.5-2z" class="C"/><path fill="#ef4c4d" d="M82.5 110.5c-.131-.739.036-1.406.5-2 .692.937.525 1.603-.5 2z" class="D"/><path d="M82.5 110.5c.16 1.699-.007 3.366-.5 5-.78-1.887-.613-3.554.5-5z" class="C E"/><path fill="#df303e" d="M207.5 111.5c1.098 1.101 1.265 2.434.5 4a8.43 8.43 0 0 1-.5-4z" class="C"/><path fill="#fdc759" d="M153.5 135.5c3.096 8.051 5.096 16.384 6 25 .198 5.547-1.302 10.547-4.5 15-.671.752-1.504 1.086-2.5 1-1.787-4.125-4.787-6.792-9-8-.391 5.438-2.891 9.771-7.5 13a8.43 8.43 0 0 0-.5 4c-.247 3.005.753 5.505 3 7.5-.948.483-1.948.649-3 .5-11.53-5.372-16.364-14.372-14.5-27a151.21 151.21 0 0 1 12-17 30.7 30.7 0 0 0 4.5-12c4.417 2.403 6.751 6.07 7 11 2.934-.789 4.768-2.789 5.5-6a52.14 52.14 0 0 1 1.5-10c.925.857 1.592 1.857 2 3z"/><path fill="#f6b146" d="M153.5 135.5c13.311 11.433 18.144 25.766 14.5 43-2.257 5.415-5.757 9.749-10.5 13-1.758.377-3.425 1.044-5 2l-1-1c1.13-1.122 1.797-2.456 2-4 1.523-4.112 1.189-8.112-1-12 .996.086 1.829-.248 2.5-1 3.198-4.453 4.698-9.453 4.5-15-.904-8.616-2.904-16.949-6-25z"/><path fill="#f27325" d="M152.5 176.5c2.189 3.888 2.523 7.888 1 12 .405-3.548-.095-6.881-1.5-10-.833 1.5-2 2.667-3.5 3.5a70.01 70.01 0 0 1-13 3.5 8.43 8.43 0 0 1 .5-4c4.609-3.229 7.109-7.562 7.5-13 4.213 1.208 7.213 3.875 9 8z"/><path fill="#e65529" d="M153.5 188.5c-.203 1.544-.87 2.878-2 4l1 1c1.575-.956 3.242-1.623 5-2 .03.997-.47 1.664-1.5 2-6.994 2.554-13.827 2.554-20.5 0 1.052.149 2.052-.017 3-.5-2.247-1.995-3.247-4.495-3-7.5a70.01 70.01 0 0 0 13-3.5c1.5-.833 2.667-2 3.5-3.5 1.405 3.119 1.905 6.452 1.5 10z"/><path d="M81.5 217.5c1.098 1.101 1.265 2.434.5 4-.49-1.293-.657-2.627-.5-4z" class="D E"/><path fill="#e1333f" d="M207.5 217.5c1.098 1.101 1.265 2.434.5 4a8.43 8.43 0 0 1-.5-4z" class="C"/><path fill="#ef4c4d" d="M82.5 222.5c1.025.397 1.192 1.063.5 2-.464-.594-.631-1.261-.5-2z" class="C"/><path d="M84.5 227.5c-1.025-.397-1.192-1.063-.5-2 .464.594.631 1.261.5 2z" class="C E"/><path fill="#e23741" d="M201.5 231.5c1.333.667 1.333.667 0 0z" class="B"/><path d="M88.5 232.5h1c.667 0 1 .333 1 1 .667 0 1 .333 1 1 .667 0 1 .333 1 1 .667 0 1 .333 1 1-2.595.46-4.261-.874-5-4z" class="B E"/><path fill="#e0343f" d="M200.5 232.5h1c-.185.67-.519.67-1 0z" class="B"/><g fill="#e13440"><path d="M199.5 233.5h1c-.168 2.551-1.168 3.218-3 2 .667 0 1-.333 1-1 .667 0 1-.333 1-1zm-9 8v-1h2c-.342.838-1.008 1.172-2 1z" class="F"/></g><path fill="#e13540" d="M190.5 241.5c-.667.667-.667.667 0 0z" class="B"/><path d="M100.5 250.5l70 .5c5.207 1.581 7.541 5.081 7 10.5h-69c-.667-1.333-1.333-1.333-2 0-2.187-.549-2.854-1.715-2-3.5-.862-2.734-1.695-2.901-2.5-.5-.465-1.431-1.299-2.597-2.5-3.5 2.227-.704 2.56-1.871 1-3.5z" opacity=".997" class="G"/><path fill="#e13440" d="M188.5 255.5c-.131-.739.036-1.406.5-2 .692.937.525 1.603-.5 2z" class="D"/><path fill="#e1343f" d="M187.5 255.5h1c.172.992-.162 1.658-1 2v-2z" class="B"/><path d="M106.5 261.5h2v1c-.992.172-1.658-.162-2-1z" class="B G"/><path fill="#ef4b4b" d="M108.5 262.5l72 .5c-24.17.83-48.17.663-72-.5z" opacity=".012"/></svg>