<?xml version="1.0" encoding="UTF-8"?>
<svg xmlns="http://www.w3.org/2000/svg" xmlns:xlink="http://www.w3.org/1999/xlink" width="32px" height="32px" viewBox="0 0 32 32" version="1.1">
<g id="surface1">
<path style=" stroke:none;fill-rule:nonzero;fill:rgb(97.254902%,97.254902%,97.254902%);fill-opacity:1;" d="M 14.292969 1.914062 C 14.355469 1.910156 14.355469 1.910156 14.417969 1.910156 C 14.554688 1.910156 14.6875 1.910156 14.820312 1.910156 C 14.914062 1.910156 15.011719 1.910156 15.105469 1.910156 C 15.300781 1.910156 15.496094 1.910156 15.695312 1.910156 C 15.945312 1.910156 16.195312 1.910156 16.449219 1.90625 C 16.640625 1.90625 16.835938 1.90625 17.03125 1.90625 C 17.121094 1.90625 17.214844 1.90625 17.308594 1.90625 C 17.4375 1.90625 17.566406 1.90625 17.695312 1.90625 C 17.769531 1.90625 17.84375 1.90625 17.921875 1.90625 C 18.175781 1.945312 18.304688 2.015625 18.5 2.1875 C 18.6875 2.625 18.6875 2.625 18.6875 3.625 C 18.007812 3.625 17.328125 3.625 16.625 3.625 C 16.625 4.386719 16.625 5.152344 16.625 5.9375 C 16.953125 5.957031 17.285156 5.980469 17.625 6 C 17.828125 6.027344 18.019531 6.054688 18.21875 6.097656 C 18.269531 6.109375 18.320312 6.117188 18.375 6.128906 C 20.742188 6.648438 22.652344 7.84375 24.355469 9.535156 C 24.386719 9.566406 24.421875 9.597656 24.453125 9.632812 C 24.679688 9.859375 24.679688 9.859375 24.75 10 C 25.03125 9.941406 25.242188 9.804688 25.484375 9.660156 C 25.527344 9.632812 25.570312 9.609375 25.617188 9.582031 C 25.726562 9.515625 25.832031 9.445312 25.9375 9.375 C 25.9375 9.152344 25.734375 8.996094 25.59375 8.835938 C 25.558594 8.796875 25.523438 8.757812 25.488281 8.714844 C 24.824219 7.957031 24.058594 7.347656 23.25 6.75 C 23.789062 5.988281 24.800781 5.605469 25.6875 5.4375 C 25.945312 5.410156 26.199219 5.40625 26.457031 5.410156 C 26.523438 5.410156 26.59375 5.410156 26.664062 5.410156 C 27.816406 5.4375 28.828125 5.847656 29.6875 6.625 C 29.746094 6.679688 29.746094 6.679688 29.808594 6.730469 C 30.691406 7.5625 31.175781 8.734375 31.210938 9.933594 C 31.230469 11.226562 30.878906 12.339844 30 13.3125 C 29.960938 13.355469 29.921875 13.402344 29.882812 13.445312 C 29.492188 13.863281 29.03125 14.167969 28.5 14.375 C 28.484375 14.324219 28.46875 14.277344 28.453125 14.226562 C 28.035156 12.890625 27.550781 11.632812 26.8125 10.4375 C 26.515625 10.523438 26.265625 10.652344 26.007812 10.820312 C 25.972656 10.84375 25.933594 10.867188 25.894531 10.890625 C 25.804688 10.949219 25.714844 11.003906 25.625 11.0625 C 25.707031 11.289062 25.8125 11.488281 25.9375 11.695312 C 27.460938 14.269531 27.734375 17.421875 27.019531 20.289062 C 26.394531 22.648438 24.878906 25.074219 22.8125 26.4375 C 22.855469 26.664062 22.953125 26.84375 23.0625 27.042969 C 23.101562 27.113281 23.140625 27.183594 23.183594 27.253906 C 23.222656 27.332031 23.265625 27.40625 23.308594 27.480469 C 23.351562 27.558594 23.394531 27.632812 23.4375 27.710938 C 23.695312 28.175781 23.960938 28.636719 24.234375 29.089844 C 24.425781 29.40625 24.589844 29.730469 24.75 30.0625 C 24.382812 30.078125 24.015625 30.085938 23.648438 30.09375 C 23.523438 30.097656 23.398438 30.101562 23.273438 30.105469 C 22.25 30.144531 22.25 30.144531 21.972656 29.964844 C 21.871094 29.8125 21.8125 29.671875 21.75 29.5 C 21.675781 29.367188 21.601562 29.238281 21.527344 29.109375 C 21.449219 28.972656 21.375 28.832031 21.296875 28.695312 C 21.21875 28.554688 21.144531 28.417969 21.066406 28.277344 C 21.03125 28.21875 21 28.15625 20.964844 28.09375 C 20.898438 27.976562 20.824219 27.863281 20.75 27.75 C 20.527344 27.785156 20.328125 27.851562 20.117188 27.933594 C 19.242188 28.289062 18.3125 28.515625 17.375 28.625 C 17.316406 28.632812 17.261719 28.640625 17.203125 28.644531 C 15.277344 28.84375 13.039062 28.613281 11.3125 27.6875 C 10.847656 28.476562 10.390625 29.265625 9.9375 30.0625 C 9.050781 30.0625 8.164062 30.0625 7.25 30.0625 C 7.675781 29.210938 7.675781 29.210938 7.902344 28.835938 C 7.957031 28.746094 8.007812 28.65625 8.0625 28.566406 C 8.105469 28.492188 8.105469 28.492188 8.148438 28.417969 C 8.332031 28.109375 8.511719 27.800781 8.691406 27.492188 C 8.734375 27.421875 8.777344 27.347656 8.824219 27.273438 C 8.882812 27.167969 8.945312 27.066406 9.003906 26.960938 C 9.039062 26.902344 9.074219 26.839844 9.113281 26.777344 C 9.203125 26.625 9.203125 26.625 9.1875 26.4375 C 9.074219 26.328125 9.074219 26.328125 8.921875 26.21875 C 6.492188 24.339844 5.039062 21.574219 4.652344 18.546875 C 4.410156 16.1875 4.851562 13.503906 6.1875 11.5 C 6.1875 11.4375 6.1875 11.375 6.1875 11.3125 C 6.089844 11.222656 6.089844 11.222656 5.953125 11.144531 C 5.90625 11.113281 5.859375 11.082031 5.808594 11.050781 C 5.734375 11.003906 5.734375 11.003906 5.65625 10.957031 C 5.582031 10.910156 5.582031 10.910156 5.503906 10.859375 C 5.378906 10.78125 5.25 10.703125 5.125 10.625 C 4.851562 10.925781 4.691406 11.28125 4.515625 11.644531 C 4.464844 11.746094 4.464844 11.746094 4.414062 11.851562 C 4.109375 12.5 3.878906 13.167969 3.671875 13.855469 C 3.617188 14.027344 3.558594 14.203125 3.5 14.375 C 2.414062 13.96875 1.628906 13.066406 1.148438 12.035156 C 0.675781 10.859375 0.636719 9.503906 1.109375 8.320312 C 1.328125 7.800781 1.621094 7.355469 2 6.9375 C 2.035156 6.894531 2.074219 6.851562 2.113281 6.808594 C 2.820312 6.042969 3.886719 5.503906 4.925781 5.421875 C 6.367188 5.367188 7.644531 5.644531 8.75 6.625 C 8.671875 6.859375 8.59375 6.890625 8.394531 7.027344 C 7.46875 7.679688 6.28125 8.574219 5.8125 9.625 C 5.855469 9.640625 5.898438 9.65625 5.941406 9.667969 C 6.164062 9.765625 6.355469 9.898438 6.550781 10.039062 C 6.605469 10.078125 6.605469 10.078125 6.664062 10.117188 C 6.753906 10.183594 6.847656 10.246094 6.9375 10.3125 C 6.960938 10.285156 6.988281 10.257812 7.011719 10.230469 C 7.296875 9.925781 7.585938 9.617188 7.875 9.3125 C 7.90625 9.277344 7.941406 9.242188 7.972656 9.207031 C 9.832031 7.25 12.46875 6.179688 15.125 5.9375 C 15.125 5.175781 15.125 4.410156 15.125 3.625 C 14.527344 3.625 13.929688 3.625 13.3125 3.625 C 13.308594 3.445312 13.300781 3.269531 13.296875 3.085938 C 13.292969 3.03125 13.292969 2.976562 13.289062 2.917969 C 13.285156 2.582031 13.332031 2.386719 13.5625 2.125 C 13.8125 1.941406 13.988281 1.914062 14.292969 1.914062 Z M 14.292969 1.914062 "/>
<path style=" stroke:none;fill-rule:nonzero;fill:rgb(92.54902%,10.980392%,14.117647%);fill-opacity:1;" d="M 14.292969 1.914062 C 14.355469 1.910156 14.355469 1.910156 14.417969 1.910156 C 14.554688 1.910156 14.6875 1.910156 14.820312 1.910156 C 14.914062 1.910156 15.011719 1.910156 15.105469 1.910156 C 15.300781 1.910156 15.496094 1.910156 15.695312 1.910156 C 15.945312 1.910156 16.195312 1.910156 16.449219 1.90625 C 16.640625 1.90625 16.835938 1.90625 17.03125 1.90625 C 17.121094 1.90625 17.214844 1.90625 17.308594 1.90625 C 17.4375 1.90625 17.566406 1.90625 17.695312 1.90625 C 17.769531 1.90625 17.84375 1.90625 17.921875 1.90625 C 18.175781 1.945312 18.304688 2.015625 18.5 2.1875 C 18.6875 2.625 18.6875 2.625 18.6875 3.625 C 18.007812 3.625 17.328125 3.625 16.625 3.625 C 16.625 4.386719 16.625 5.152344 16.625 5.9375 C 16.953125 5.957031 17.285156 5.980469 17.625 6 C 17.828125 6.027344 18.019531 6.054688 18.21875 6.097656 C 18.269531 6.109375 18.320312 6.117188 18.375 6.128906 C 20.742188 6.648438 22.652344 7.84375 24.355469 9.535156 C 24.386719 9.566406 24.421875 9.597656 24.453125 9.632812 C 24.679688 9.859375 24.679688 9.859375 24.75 10 C 25.03125 9.941406 25.242188 9.804688 25.484375 9.660156 C 25.527344 9.632812 25.570312 9.609375 25.617188 9.582031 C 25.726562 9.515625 25.832031 9.445312 25.9375 9.375 C 25.9375 9.152344 25.734375 8.996094 25.59375 8.835938 C 25.558594 8.796875 25.523438 8.757812 25.488281 8.714844 C 24.824219 7.957031 24.058594 7.347656 23.25 6.75 C 23.789062 5.988281 24.800781 5.605469 25.6875 5.4375 C 25.945312 5.410156 26.199219 5.40625 26.457031 5.410156 C 26.523438 5.410156 26.59375 5.410156 26.664062 5.410156 C 27.816406 5.4375 28.828125 5.847656 29.6875 6.625 C 29.746094 6.679688 29.746094 6.679688 29.808594 6.730469 C 30.691406 7.5625 31.175781 8.734375 31.210938 9.933594 C 31.230469 11.226562 30.878906 12.339844 30 13.3125 C 29.960938 13.355469 29.921875 13.402344 29.882812 13.445312 C 29.492188 13.863281 29.03125 14.167969 28.5 14.375 C 28.484375 14.324219 28.46875 14.277344 28.453125 14.226562 C 28.035156 12.890625 27.550781 11.632812 26.8125 10.4375 C 26.515625 10.523438 26.265625 10.652344 26.007812 10.820312 C 25.972656 10.84375 25.933594 10.867188 25.894531 10.890625 C 25.804688 10.949219 25.714844 11.003906 25.625 11.0625 C 25.707031 11.289062 25.8125 11.488281 25.9375 11.695312 C 27.460938 14.269531 27.734375 17.421875 27.019531 20.289062 C 26.394531 22.648438 24.878906 25.074219 22.8125 26.4375 C 22.855469 26.664062 22.953125 26.84375 23.0625 27.042969 C 23.101562 27.113281 23.140625 27.183594 23.183594 27.253906 C 23.222656 27.332031 23.265625 27.40625 23.308594 27.480469 C 23.351562 27.558594 23.394531 27.632812 23.4375 27.710938 C 23.695312 28.175781 23.960938 28.636719 24.234375 29.089844 C 24.425781 29.40625 24.589844 29.730469 24.75 30.0625 C 24.382812 30.078125 24.015625 30.085938 23.648438 30.09375 C 23.523438 30.097656 23.398438 30.101562 23.273438 30.105469 C 22.25 30.144531 22.25 30.144531 21.972656 29.964844 C 21.871094 29.8125 21.8125 29.671875 21.75 29.5 C 21.675781 29.367188 21.601562 29.238281 21.527344 29.109375 C 21.449219 28.972656 21.375 28.832031 21.296875 28.695312 C 21.21875 28.554688 21.144531 28.417969 21.066406 28.277344 C 21.03125 28.21875 21 28.15625 20.964844 28.09375 C 20.898438 27.976562 20.824219 27.863281 20.75 27.75 C 20.527344 27.785156 20.328125 27.851562 20.117188 27.933594 C 19.242188 28.289062 18.3125 28.515625 17.375 28.625 C 17.316406 28.632812 17.261719 28.640625 17.203125 28.644531 C 15.277344 28.84375 13.039062 28.613281 11.3125 27.6875 C 10.847656 28.476562 10.390625 29.265625 9.9375 30.0625 C 9.050781 30.0625 8.164062 30.0625 7.25 30.0625 C 7.675781 29.210938 7.675781 29.210938 7.902344 28.835938 C 7.957031 28.746094 8.007812 28.65625 8.0625 28.566406 C 8.105469 28.492188 8.105469 28.492188 8.148438 28.417969 C 8.332031 28.109375 8.511719 27.800781 8.691406 27.492188 C 8.734375 27.421875 8.777344 27.347656 8.824219 27.273438 C 8.882812 27.167969 8.945312 27.066406 9.003906 26.960938 C 9.039062 26.902344 9.074219 26.839844 9.113281 26.777344 C 9.203125 26.625 9.203125 26.625 9.1875 26.4375 C 9.074219 26.328125 9.074219 26.328125 8.921875 26.21875 C 6.492188 24.339844 5.039062 21.574219 4.652344 18.546875 C 4.410156 16.1875 4.851562 13.503906 6.1875 11.5 C 6.1875 11.4375 6.1875 11.375 6.1875 11.3125 C 6.089844 11.222656 6.089844 11.222656 5.953125 11.144531 C 5.90625 11.113281 5.859375 11.082031 5.808594 11.050781 C 5.734375 11.003906 5.734375 11.003906 5.65625 10.957031 C 5.582031 10.910156 5.582031 10.910156 5.503906 10.859375 C 5.378906 10.78125 5.25 10.703125 5.125 10.625 C 4.851562 10.925781 4.691406 11.28125 4.515625 11.644531 C 4.464844 11.746094 4.464844 11.746094 4.414062 11.851562 C 4.109375 12.5 3.878906 13.167969 3.671875 13.855469 C 3.617188 14.027344 3.558594 14.203125 3.5 14.375 C 2.414062 13.96875 1.628906 13.066406 1.148438 12.035156 C 0.675781 10.859375 0.636719 9.503906 1.109375 8.320312 C 1.328125 7.800781 1.621094 7.355469 2 6.9375 C 2.035156 6.894531 2.074219 6.851562 2.113281 6.808594 C 2.820312 6.042969 3.886719 5.503906 4.925781 5.421875 C 6.367188 5.367188 7.644531 5.644531 8.75 6.625 C 8.671875 6.859375 8.59375 6.890625 8.394531 7.027344 C 7.46875 7.679688 6.28125 8.574219 5.8125 9.625 C 5.855469 9.640625 5.898438 9.65625 5.941406 9.667969 C 6.164062 9.765625 6.355469 9.898438 6.550781 10.039062 C 6.605469 10.078125 6.605469 10.078125 6.664062 10.117188 C 6.753906 10.183594 6.847656 10.246094 6.9375 10.3125 C 6.960938 10.285156 6.988281 10.257812 7.011719 10.230469 C 7.296875 9.925781 7.585938 9.617188 7.875 9.3125 C 7.90625 9.277344 7.941406 9.242188 7.972656 9.207031 C 9.832031 7.25 12.46875 6.179688 15.125 5.9375 C 15.125 5.175781 15.125 4.410156 15.125 3.625 C 14.527344 3.625 13.929688 3.625 13.3125 3.625 C 13.308594 3.445312 13.300781 3.269531 13.296875 3.085938 C 13.292969 3.03125 13.292969 2.976562 13.289062 2.917969 C 13.285156 2.582031 13.332031 2.386719 13.5625 2.125 C 13.8125 1.941406 13.988281 1.914062 14.292969 1.914062 Z M 13.8125 7.75 C 13.769531 7.761719 13.722656 7.769531 13.675781 7.78125 C 13.003906 7.949219 12.375 8.199219 11.75 8.5 C 11.691406 8.527344 11.691406 8.527344 11.628906 8.558594 C 10.707031 9.011719 9.925781 9.597656 9.1875 10.3125 C 9.105469 10.386719 9.105469 10.386719 9.023438 10.464844 C 7.351562 12.074219 6.300781 14.46875 6.238281 16.789062 C 6.199219 19.671875 7.132812 22.195312 9.152344 24.277344 C 9.710938 24.832031 10.320312 25.292969 11 25.6875 C 11.066406 25.726562 11.066406 25.726562 11.132812 25.765625 C 12.40625 26.496094 13.894531 27.019531 15.375 27.0625 C 15.417969 27.0625 15.457031 27.066406 15.5 27.066406 C 18.308594 27.140625 20.726562 26.164062 22.8125 24.3125 C 22.851562 24.277344 22.894531 24.238281 22.9375 24.203125 C 24.691406 22.542969 25.683594 20.03125 25.765625 17.648438 C 25.804688 15.503906 25.25 13.445312 24 11.6875 C 23.960938 11.632812 23.960938 11.632812 23.925781 11.582031 C 22.328125 9.378906 19.964844 8.027344 17.292969 7.589844 C 16.890625 7.539062 16.484375 7.546875 16.078125 7.546875 C 16.03125 7.546875 15.984375 7.546875 15.9375 7.546875 C 15.214844 7.546875 14.515625 7.578125 13.8125 7.75 Z M 13.8125 7.75 "/>
<path style=" stroke:none;fill-rule:nonzero;fill:rgb(99.607843%,78.823529%,22.352941%);fill-opacity:1;" d="M 26.457031 5.410156 C 26.523438 5.410156 26.59375 5.410156 26.664062 5.410156 C 27.816406 5.4375 28.828125 5.847656 29.6875 6.625 C 29.726562 6.660156 29.765625 6.695312 29.808594 6.730469 C 30.691406 7.5625 31.175781 8.734375 31.210938 9.933594 C 31.230469 11.226562 30.878906 12.339844 30 13.3125 C 29.960938 13.355469 29.921875 13.402344 29.882812 13.445312 C 29.492188 13.863281 29.03125 14.167969 28.5 14.375 C 28.484375 14.324219 28.46875 14.277344 28.453125 14.226562 C 28.035156 12.890625 27.550781 11.632812 26.8125 10.4375 C 26.472656 10.535156 26.203125 10.699219 25.910156 10.890625 C 25.644531 11.0625 25.644531 11.0625 25.4375 11.0625 C 25.320312 10.921875 25.214844 10.785156 25.113281 10.632812 C 25.085938 10.59375 25.054688 10.550781 25.027344 10.507812 C 24.8125 10.207031 24.8125 10.207031 24.8125 10.0625 C 24.914062 9.988281 24.914062 9.988281 25.058594 9.90625 C 25.109375 9.875 25.160156 9.84375 25.210938 9.8125 C 25.320312 9.75 25.429688 9.6875 25.539062 9.625 C 25.589844 9.59375 25.640625 9.5625 25.691406 9.53125 C 25.738281 9.503906 25.785156 9.476562 25.835938 9.449219 C 25.867188 9.425781 25.902344 9.402344 25.9375 9.375 C 25.9375 9.152344 25.734375 8.996094 25.59375 8.835938 C 25.542969 8.777344 25.542969 8.777344 25.488281 8.714844 C 24.824219 7.957031 24.058594 7.347656 23.25 6.75 C 23.941406 5.773438 25.320312 5.398438 26.457031 5.410156 Z M 26.457031 5.410156 "/>
<path style=" stroke:none;fill-rule:nonzero;fill:rgb(99.607843%,78.823529%,22.352941%);fill-opacity:1;" d="M 8.375 6.316406 C 8.503906 6.417969 8.628906 6.515625 8.75 6.625 C 8.671875 6.859375 8.59375 6.890625 8.394531 7.027344 C 7.46875 7.679688 6.28125 8.574219 5.8125 9.625 C 5.855469 9.640625 5.898438 9.652344 5.941406 9.667969 C 6.175781 9.773438 6.375 9.917969 6.582031 10.070312 C 6.640625 10.113281 6.640625 10.113281 6.703125 10.160156 C 6.804688 10.230469 6.902344 10.304688 7 10.375 C 6.933594 10.484375 6.867188 10.589844 6.800781 10.699219 C 6.765625 10.757812 6.726562 10.820312 6.6875 10.882812 C 6.558594 11.070312 6.414062 11.21875 6.25 11.375 C 6.152344 11.308594 6.152344 11.308594 6.054688 11.242188 C 5.96875 11.183594 5.882812 11.128906 5.796875 11.070312 C 5.753906 11.042969 5.710938 11.011719 5.667969 10.984375 C 5.625 10.957031 5.585938 10.925781 5.542969 10.898438 C 5.503906 10.875 5.464844 10.847656 5.425781 10.820312 C 5.308594 10.746094 5.1875 10.683594 5.0625 10.625 C 4.539062 11.578125 4.085938 12.523438 3.75 13.5625 C 3.734375 13.609375 3.71875 13.652344 3.707031 13.699219 C 3.632812 13.925781 3.566406 14.148438 3.5 14.375 C 2.414062 13.96875 1.628906 13.066406 1.148438 12.035156 C 0.675781 10.859375 0.636719 9.503906 1.109375 8.320312 C 1.328125 7.800781 1.621094 7.355469 2 6.9375 C 2.035156 6.894531 2.074219 6.851562 2.113281 6.808594 C 3.734375 5.046875 6.480469 5.011719 8.375 6.316406 Z M 8.375 6.316406 "/>
<path style=" stroke:none;fill-rule:nonzero;fill:rgb(75.686275%,14.901961%,17.254902%);fill-opacity:1;" d="M 4.625 17 C 4.644531 17 4.667969 17 4.6875 17 C 4.691406 17.042969 4.695312 17.082031 4.699219 17.125 C 4.792969 18.136719 4.949219 19.09375 5.25 20.0625 C 5.265625 20.105469 5.277344 20.152344 5.292969 20.199219 C 5.871094 22.03125 7.070312 23.851562 8.5625 25.0625 C 8.609375 25.101562 8.609375 25.101562 8.65625 25.140625 C 9.183594 25.570312 9.726562 25.964844 10.3125 26.3125 C 10.347656 26.332031 10.382812 26.355469 10.421875 26.378906 C 12.953125 27.863281 16.066406 28.191406 18.890625 27.464844 C 19.421875 27.324219 19.933594 27.15625 20.4375 26.9375 C 20.480469 26.917969 20.523438 26.902344 20.566406 26.882812 C 22.066406 26.242188 23.53125 25.210938 24.5625 23.9375 C 24.613281 23.875 24.664062 23.816406 24.71875 23.75 C 25.765625 22.472656 26.46875 21.015625 26.9375 19.4375 C 26.957031 19.367188 26.976562 19.300781 27 19.230469 C 27.183594 18.523438 27.234375 17.785156 27.3125 17.0625 C 27.332031 17.0625 27.355469 17.0625 27.375 17.0625 C 27.46875 20.160156 26.289062 23 24.183594 25.25 C 23.765625 25.6875 23.320312 26.101562 22.8125 26.4375 C 22.855469 26.664062 22.953125 26.84375 23.0625 27.042969 C 23.101562 27.113281 23.140625 27.183594 23.183594 27.253906 C 23.222656 27.332031 23.265625 27.40625 23.308594 27.480469 C 23.351562 27.558594 23.394531 27.632812 23.4375 27.710938 C 23.695312 28.175781 23.960938 28.636719 24.234375 29.089844 C 24.425781 29.40625 24.589844 29.730469 24.75 30.0625 C 24.382812 30.078125 24.015625 30.085938 23.648438 30.09375 C 23.523438 30.097656 23.398438 30.101562 23.273438 30.105469 C 22.25 30.144531 22.25 30.144531 21.972656 29.964844 C 21.871094 29.8125 21.8125 29.671875 21.75 29.5 C 21.675781 29.367188 21.601562 29.238281 21.527344 29.109375 C 21.449219 28.972656 21.375 28.832031 21.296875 28.695312 C 21.21875 28.554688 21.144531 28.417969 21.066406 28.277344 C 21.03125 28.21875 21 28.15625 20.964844 28.09375 C 20.898438 27.976562 20.824219 27.863281 20.75 27.75 C 20.527344 27.785156 20.328125 27.851562 20.117188 27.933594 C 19.242188 28.289062 18.3125 28.515625 17.375 28.625 C 17.316406 28.632812 17.261719 28.640625 17.203125 28.644531 C 15.277344 28.84375 13.039062 28.613281 11.3125 27.6875 C 10.847656 28.476562 10.390625 29.265625 9.9375 30.0625 C 9.050781 30.0625 8.164062 30.0625 7.25 30.0625 C 7.675781 29.210938 7.675781 29.210938 7.902344 28.835938 C 7.957031 28.746094 8.007812 28.65625 8.0625 28.566406 C 8.089844 28.519531 8.121094 28.46875 8.148438 28.417969 C 8.332031 28.109375 8.511719 27.800781 8.691406 27.492188 C 8.734375 27.421875 8.777344 27.347656 8.824219 27.273438 C 8.882812 27.167969 8.945312 27.066406 9.003906 26.960938 C 9.039062 26.902344 9.074219 26.839844 9.113281 26.777344 C 9.203125 26.625 9.203125 26.625 9.1875 26.4375 C 9.074219 26.328125 9.074219 26.328125 8.921875 26.21875 C 6.519531 24.359375 5.097656 21.65625 4.667969 18.671875 C 4.621094 18.3125 4.617188 17.953125 4.621094 17.589844 C 4.621094 17.53125 4.621094 17.476562 4.621094 17.417969 C 4.621094 17.277344 4.625 17.140625 4.625 17 Z M 4.625 17 "/>
<path style=" stroke:none;fill-rule:nonzero;fill:rgb(91.372549%,90.980392%,90.980392%);fill-opacity:1;" d="M 6.25 16.4375 C 6.269531 16.4375 6.292969 16.4375 6.3125 16.4375 C 6.320312 16.511719 6.324219 16.585938 6.332031 16.660156 C 6.574219 19.359375 7.777344 21.441406 9.6875 23.3125 C 9.699219 23.269531 9.714844 23.226562 9.726562 23.179688 C 9.839844 22.945312 9.988281 22.785156 10.171875 22.601562 C 10.21875 22.550781 10.21875 22.550781 10.269531 22.496094 C 10.367188 22.398438 10.367188 22.398438 10.5625 22.25 C 10.800781 22.25 10.894531 22.269531 11.0625 22.4375 C 11.058594 22.730469 10.96875 22.878906 10.757812 23.082031 C 10.726562 23.113281 10.695312 23.140625 10.664062 23.171875 C 10.632812 23.203125 10.601562 23.230469 10.570312 23.261719 C 10.429688 23.398438 10.289062 23.515625 10.125 23.625 C 11.734375 24.84375 13.609375 25.5 15.625 25.625 C 15.621094 25.558594 15.621094 25.496094 15.617188 25.429688 C 15.613281 25.34375 15.613281 25.257812 15.609375 25.171875 C 15.605469 25.128906 15.605469 25.085938 15.601562 25.042969 C 15.597656 24.824219 15.609375 24.710938 15.738281 24.53125 C 15.875 24.4375 15.875 24.4375 16.070312 24.441406 C 16.25 24.5 16.25 24.5 16.375 24.6875 C 16.382812 24.851562 16.386719 25.003906 16.382812 25.167969 C 16.382812 25.210938 16.382812 25.253906 16.382812 25.300781 C 16.378906 25.410156 16.378906 25.515625 16.375 25.625 C 17.644531 25.492188 18.832031 25.277344 20 24.75 C 20.039062 24.730469 20.082031 24.714844 20.125 24.695312 C 20.757812 24.402344 21.320312 24.046875 21.875 23.625 C 21.832031 23.589844 21.792969 23.550781 21.75 23.515625 C 21.109375 22.949219 21.109375 22.949219 20.9375 22.6875 C 20.941406 22.46875 20.972656 22.402344 21.125 22.25 C 21.261719 22.21875 21.261719 22.21875 21.4375 22.25 C 21.59375 22.363281 21.726562 22.5 21.859375 22.640625 C 21.894531 22.675781 21.933594 22.714844 21.972656 22.75 C 22.152344 22.933594 22.265625 23.054688 22.3125 23.3125 C 24.273438 21.417969 25.519531 19.199219 25.6875 16.4375 C 25.707031 16.4375 25.730469 16.4375 25.75 16.4375 C 25.824219 19.421875 25.015625 21.984375 22.9375 24.183594 C 21.398438 25.773438 19.363281 26.691406 17.1875 27 C 17.132812 27.007812 17.078125 27.015625 17.023438 27.023438 C 14.648438 27.328125 12.109375 26.597656 10.207031 25.160156 C 9.855469 24.890625 9.519531 24.605469 9.1875 24.3125 C 9.148438 24.277344 9.105469 24.238281 9.0625 24.203125 C 7.410156 22.636719 6.390625 20.25 6.25 18 C 6.242188 17.726562 6.242188 17.453125 6.246094 17.179688 C 6.246094 17.109375 6.246094 17.035156 6.246094 16.960938 C 6.246094 16.789062 6.25 16.613281 6.25 16.4375 Z M 6.25 16.4375 "/>
<path style=" stroke:none;fill-rule:nonzero;fill:rgb(99.607843%,78.823529%,21.960784%);fill-opacity:1;" d="M 14.292969 1.914062 C 14.355469 1.910156 14.355469 1.910156 14.417969 1.910156 C 14.554688 1.910156 14.6875 1.910156 14.820312 1.910156 C 14.914062 1.910156 15.011719 1.910156 15.105469 1.910156 C 15.300781 1.910156 15.496094 1.910156 15.695312 1.910156 C 15.945312 1.910156 16.195312 1.910156 16.449219 1.90625 C 16.640625 1.90625 16.835938 1.90625 17.03125 1.90625 C 17.121094 1.90625 17.214844 1.90625 17.308594 1.90625 C 17.4375 1.90625 17.566406 1.90625 17.695312 1.90625 C 17.769531 1.90625 17.84375 1.90625 17.921875 1.90625 C 18.175781 1.945312 18.304688 2.015625 18.5 2.1875 C 18.6875 2.625 18.6875 2.625 18.6875 3.625 C 18.007812 3.625 17.328125 3.625 16.625 3.625 C 16.625 4.386719 16.625 5.152344 16.625 5.9375 C 16.128906 5.957031 15.636719 5.980469 15.125 6 C 15.125 5.214844 15.125 4.433594 15.125 3.625 C 14.527344 3.625 13.929688 3.625 13.3125 3.625 C 13.308594 3.445312 13.300781 3.269531 13.296875 3.085938 C 13.292969 3.03125 13.292969 2.976562 13.289062 2.917969 C 13.285156 2.582031 13.332031 2.386719 13.5625 2.125 C 13.8125 1.941406 13.988281 1.914062 14.292969 1.914062 Z M 14.292969 1.914062 "/>
<path style=" stroke:none;fill-rule:nonzero;fill:rgb(97.647059%,67.45098%,0%);fill-opacity:1;" d="M 29.125 6.25 C 29.421875 6.386719 29.640625 6.589844 29.875 6.8125 C 29.914062 6.851562 29.957031 6.890625 30 6.929688 C 30.886719 7.84375 31.230469 9.058594 31.21875 10.304688 C 31.179688 11.449219 30.773438 12.457031 30 13.3125 C 29.960938 13.355469 29.921875 13.402344 29.882812 13.445312 C 29.488281 13.863281 29.03125 14.164062 28.5 14.375 C 28.292969 13.734375 28.085938 13.097656 27.875 12.4375 C 28.4375 12 28.4375 12 28.613281 11.867188 C 29.332031 11.25 29.792969 10.183594 29.875 9.25 C 29.925781 8.191406 29.710938 7.261719 29.125 6.375 C 29.125 6.332031 29.125 6.292969 29.125 6.25 Z M 29.125 6.25 "/>
<path style=" stroke:none;fill-rule:nonzero;fill:rgb(97.647059%,67.45098%,0%);fill-opacity:1;" d="M 2.75 6.25 C 2.792969 6.269531 2.832031 6.292969 2.875 6.3125 C 2.839844 6.382812 2.804688 6.449219 2.769531 6.519531 C 2.722656 6.609375 2.679688 6.703125 2.632812 6.792969 C 2.609375 6.839844 2.585938 6.882812 2.5625 6.929688 C 2.046875 7.960938 1.988281 9.019531 2.3125 10.125 C 2.484375 10.640625 2.730469 11.070312 3.0625 11.5 C 3.105469 11.558594 3.105469 11.558594 3.148438 11.617188 C 3.417969 11.960938 3.769531 12.191406 4.125 12.4375 C 4.042969 12.691406 3.964844 12.941406 3.882812 13.195312 C 3.859375 13.265625 3.835938 13.339844 3.8125 13.410156 C 3.78125 13.515625 3.78125 13.515625 3.746094 13.621094 C 3.726562 13.683594 3.707031 13.75 3.683594 13.8125 C 3.625 14 3.5625 14.1875 3.5 14.375 C 2.414062 13.96875 1.628906 13.066406 1.148438 12.035156 C 0.675781 10.859375 0.636719 9.503906 1.109375 8.320312 C 1.457031 7.5 2.027344 6.773438 2.75 6.25 Z M 2.75 6.25 "/>
<path style=" stroke:none;fill-rule:nonzero;fill:rgb(40.784314%,40.784314%,40.784314%);fill-opacity:1;" d="M 15.1875 12.125 C 15.476562 12.355469 15.5625 12.570312 15.621094 12.925781 C 15.628906 12.976562 15.640625 13.027344 15.648438 13.078125 C 15.671875 13.191406 15.691406 13.308594 15.714844 13.421875 C 15.753906 13.652344 15.796875 13.882812 15.84375 14.113281 C 15.921875 14.535156 16 14.953125 16.078125 15.375 C 16.109375 15.550781 16.144531 15.722656 16.179688 15.894531 C 16.191406 15.964844 16.191406 15.964844 16.203125 16.03125 C 16.230469 16.15625 16.253906 16.28125 16.277344 16.40625 C 16.308594 16.609375 16.320312 16.792969 16.3125 17 C 16.359375 17.011719 16.40625 17.027344 16.453125 17.039062 C 16.6875 17.15625 16.761719 17.261719 16.875 17.5 C 16.925781 17.773438 16.941406 18.011719 16.796875 18.257812 C 16.648438 18.433594 16.503906 18.558594 16.3125 18.6875 C 16.195312 18.695312 16.195312 18.695312 16.078125 18.703125 C 15.757812 18.738281 15.609375 18.894531 15.398438 19.125 C 15.363281 19.160156 15.324219 19.199219 15.289062 19.234375 C 15.171875 19.355469 15.058594 19.472656 14.945312 19.59375 C 14.828125 19.714844 14.714844 19.832031 14.597656 19.953125 C 14.527344 20.027344 14.453125 20.101562 14.382812 20.175781 C 14.078125 20.492188 14.078125 20.492188 13.789062 20.519531 C 13.5625 20.5 13.5625 20.5 13.410156 20.402344 C 13.273438 20.1875 13.28125 20.0625 13.3125 19.8125 C 13.417969 19.652344 13.550781 19.535156 13.691406 19.410156 C 13.773438 19.332031 13.851562 19.257812 13.929688 19.183594 C 14.058594 19.066406 14.183594 18.949219 14.308594 18.832031 C 14.878906 18.363281 14.878906 18.363281 15.136719 17.710938 C 15.132812 17.664062 15.128906 17.617188 15.125 17.566406 C 15.125 17.4375 15.125 17.4375 15.21875 17.316406 C 15.328125 17.191406 15.328125 17.191406 15.3125 17.027344 C 15.300781 16.960938 15.292969 16.898438 15.28125 16.832031 C 15.265625 16.753906 15.253906 16.675781 15.238281 16.597656 C 15.222656 16.503906 15.203125 16.40625 15.1875 16.3125 C 15.167969 16.195312 15.144531 16.078125 15.125 15.957031 C 15.066406 15.621094 15.003906 15.285156 14.941406 14.953125 C 14.902344 14.742188 14.863281 14.527344 14.824219 14.316406 C 14.800781 14.183594 14.773438 14.046875 14.75 13.914062 C 14.738281 13.851562 14.726562 13.789062 14.714844 13.722656 C 14.699219 13.636719 14.699219 13.636719 14.683594 13.546875 C 14.671875 13.496094 14.664062 13.441406 14.652344 13.390625 C 14.632812 13.296875 14.613281 13.207031 14.589844 13.117188 C 14.53125 12.871094 14.535156 12.625 14.5625 12.375 C 14.726562 12.113281 14.886719 12.070312 15.1875 12.125 Z M 15.1875 12.125 "/>
<path style=" stroke:none;fill-rule:nonzero;fill:rgb(39.607843%,39.607843%,39.607843%);fill-opacity:1;" d="M 0.40625 16.109375 C 0.625 16.125 0.625 16.125 0.75 16.25 C 0.769531 16.402344 0.785156 16.546875 0.792969 16.695312 C 0.796875 16.789062 0.804688 16.882812 0.8125 16.976562 C 0.816406 17.027344 0.816406 17.078125 0.820312 17.128906 C 1.046875 20.433594 2.148438 23.496094 4.238281 26.078125 C 4.449219 26.34375 4.535156 26.472656 4.5 26.8125 C 4.425781 26.929688 4.425781 26.929688 4.3125 27 C 4.167969 27.023438 4.167969 27.023438 4 27 C 1.640625 25.113281 0.464844 21.164062 0.105469 18.320312 C 0.03125 17.648438 -0.0273438 16.921875 0.0625 16.25 C 0.1875 16.125 0.1875 16.125 0.40625 16.109375 Z M 0.40625 16.109375 "/>
<path style=" stroke:none;fill-rule:nonzero;fill:rgb(39.607843%,39.607843%,39.607843%);fill-opacity:1;" d="M 31.59375 16.109375 C 31.8125 16.125 31.8125 16.125 31.9375 16.25 C 32.390625 19.625 30.753906 23.488281 28.75 26.121094 C 28.082031 26.984375 28.082031 26.984375 27.839844 27.027344 C 27.6875 27 27.6875 27 27.574219 26.929688 C 27.460938 26.75 27.472656 26.648438 27.5 26.4375 C 27.605469 26.257812 27.734375 26.101562 27.867188 25.941406 C 27.941406 25.847656 28.019531 25.75 28.09375 25.65625 C 28.128906 25.609375 28.167969 25.5625 28.207031 25.511719 C 29.6875 23.597656 30.59375 21.246094 31 18.875 C 31.015625 18.796875 31.027344 18.714844 31.042969 18.632812 C 31.097656 18.257812 31.128906 17.886719 31.15625 17.507812 C 31.164062 17.394531 31.164062 17.394531 31.171875 17.277344 C 31.183594 17.121094 31.191406 16.96875 31.199219 16.8125 C 31.207031 16.742188 31.210938 16.671875 31.214844 16.597656 C 31.21875 16.503906 31.21875 16.503906 31.226562 16.402344 C 31.265625 16.148438 31.339844 16.128906 31.59375 16.109375 Z M 31.59375 16.109375 "/>
<path style=" stroke:none;fill-rule:nonzero;fill:rgb(8.235294%,61.568627%,59.215686%);fill-opacity:1;" d="M 22.75 26.5 C 22.789062 26.566406 22.789062 26.566406 22.828125 26.636719 C 22.925781 26.808594 23.023438 26.980469 23.125 27.15625 C 23.167969 27.234375 23.214844 27.3125 23.257812 27.390625 C 23.511719 27.835938 23.765625 28.277344 24.023438 28.722656 C 24.042969 28.757812 24.066406 28.796875 24.089844 28.835938 C 24.191406 29.011719 24.296875 29.191406 24.398438 29.371094 C 24.4375 29.433594 24.472656 29.496094 24.511719 29.5625 C 24.542969 29.617188 24.578125 29.675781 24.609375 29.730469 C 24.6875 29.875 24.6875 29.875 24.75 30.0625 C 24.382812 30.078125 24.015625 30.085938 23.648438 30.09375 C 23.523438 30.097656 23.398438 30.101562 23.273438 30.105469 C 22.25 30.144531 22.25 30.144531 21.972656 29.964844 C 21.871094 29.8125 21.8125 29.671875 21.75 29.5 C 21.675781 29.367188 21.601562 29.238281 21.527344 29.109375 C 21.449219 28.972656 21.375 28.832031 21.296875 28.695312 C 21.21875 28.554688 21.144531 28.417969 21.066406 28.277344 C 21.015625 28.1875 21.015625 28.1875 20.964844 28.09375 C 20.898438 27.976562 20.824219 27.863281 20.75 27.75 C 20.75 27.6875 20.75 27.625 20.75 27.5625 C 20.78125 27.546875 20.816406 27.527344 20.847656 27.511719 C 21.679688 27.09375 21.679688 27.09375 22.449219 26.574219 C 22.5625 26.5 22.5625 26.5 22.75 26.5 Z M 22.75 26.5 "/>
<path style=" stroke:none;fill-rule:nonzero;fill:rgb(8.235294%,61.568627%,58.823529%);fill-opacity:1;" d="M 9.25 26.5 C 9.441406 26.539062 9.582031 26.601562 9.75 26.707031 C 9.820312 26.75 9.820312 26.75 9.890625 26.796875 C 9.941406 26.828125 9.988281 26.859375 10.039062 26.890625 C 10.433594 27.136719 10.828125 27.371094 11.25 27.5625 C 11.210938 27.835938 11.109375 28.035156 10.972656 28.273438 C 10.9375 28.328125 10.9375 28.328125 10.90625 28.386719 C 10.835938 28.503906 10.769531 28.625 10.699219 28.742188 C 10.652344 28.820312 10.609375 28.902344 10.5625 28.980469 C 10.476562 29.125 10.390625 29.273438 10.308594 29.417969 C 10.183594 29.632812 10.058594 29.847656 9.9375 30.0625 C 9.050781 30.0625 8.164062 30.0625 7.25 30.0625 C 7.675781 29.210938 7.675781 29.210938 7.902344 28.835938 C 7.957031 28.746094 8.007812 28.65625 8.0625 28.566406 C 8.089844 28.519531 8.121094 28.46875 8.152344 28.417969 C 8.332031 28.109375 8.511719 27.800781 8.691406 27.488281 C 8.753906 27.378906 8.816406 27.269531 8.878906 27.160156 C 9.070312 26.832031 9.070312 26.832031 9.25 26.5 Z M 9.25 26.5 "/>
<path style=" stroke:none;fill-rule:nonzero;fill:rgb(39.607843%,39.607843%,39.607843%);fill-opacity:1;" d="M 29.25 16.9375 C 29.378906 17.070312 29.433594 17.152344 29.457031 17.339844 C 29.457031 17.394531 29.453125 17.449219 29.453125 17.507812 C 29.449219 17.566406 29.449219 17.628906 29.445312 17.691406 C 29.445312 17.75 29.441406 17.8125 29.4375 17.875 C 29.433594 17.953125 29.433594 17.953125 29.429688 18.035156 C 29.355469 19.296875 29.121094 20.558594 28.6875 21.75 C 28.671875 21.796875 28.652344 21.84375 28.636719 21.890625 C 28.132812 23.257812 27.300781 25.375 26 26.1875 C 25.789062 26.171875 25.714844 26.152344 25.5625 26 C 25.53125 25.746094 25.53125 25.609375 25.675781 25.394531 C 25.726562 25.339844 25.777344 25.28125 25.832031 25.226562 C 27.664062 23.171875 28.496094 20.359375 28.636719 17.660156 C 28.640625 17.5625 28.640625 17.5625 28.648438 17.460938 C 28.652344 17.398438 28.65625 17.339844 28.65625 17.277344 C 28.722656 16.9375 28.929688 16.890625 29.25 16.9375 Z M 29.25 16.9375 "/>
<path style=" stroke:none;fill-rule:nonzero;fill:rgb(39.607843%,39.607843%,39.607843%);fill-opacity:1;" d="M 2.9375 16.910156 C 3.148438 16.941406 3.1875 16.960938 3.3125 17.125 C 3.339844 17.273438 3.339844 17.273438 3.347656 17.449219 C 3.351562 17.511719 3.355469 17.578125 3.359375 17.644531 C 3.363281 17.714844 3.367188 17.785156 3.371094 17.859375 C 3.546875 20.578125 4.460938 23.375 6.339844 25.40625 C 6.46875 25.613281 6.460938 25.757812 6.4375 26 C 6.332031 26.125 6.332031 26.125 6.1875 26.1875 C 5.847656 26.15625 5.734375 26.003906 5.523438 25.75 C 4.9375 25 4.433594 24.222656 4 23.375 C 3.980469 23.335938 3.957031 23.296875 3.9375 23.253906 C 3.222656 21.847656 2.769531 20.257812 2.625 18.6875 C 2.617188 18.617188 2.609375 18.546875 2.605469 18.476562 C 2.574219 18.148438 2.554688 17.824219 2.546875 17.496094 C 2.546875 17.441406 2.542969 17.390625 2.542969 17.332031 C 2.578125 17.070312 2.675781 16.949219 2.9375 16.910156 Z M 2.9375 16.910156 "/>
<path style=" stroke:none;fill-rule:nonzero;fill:rgb(8.627451%,61.568627%,58.823529%);fill-opacity:1;" d="M 15.125 3.5625 C 15.621094 3.5625 16.113281 3.5625 16.625 3.5625 C 16.625 4.347656 16.625 5.128906 16.625 5.9375 C 16.128906 5.957031 15.636719 5.980469 15.125 6 C 15.125 5.195312 15.125 4.390625 15.125 3.5625 Z M 15.125 3.5625 "/>
<path style=" stroke:none;fill-rule:nonzero;fill:rgb(97.254902%,67.058824%,0%);fill-opacity:1;" d="M 18.6875 3.0625 C 18.6875 3.25 18.6875 3.433594 18.6875 3.625 C 16.914062 3.625 15.140625 3.625 13.3125 3.625 C 13.3125 3.460938 13.3125 3.296875 13.3125 3.125 C 14.003906 3.117188 14.695312 3.109375 15.386719 3.101562 C 15.707031 3.097656 16.03125 3.09375 16.351562 3.089844 C 16.660156 3.085938 16.96875 3.082031 17.28125 3.078125 C 17.398438 3.078125 17.515625 3.074219 17.632812 3.074219 C 17.800781 3.070312 17.964844 3.070312 18.128906 3.066406 C 18.179688 3.066406 18.230469 3.066406 18.28125 3.066406 C 18.617188 3.0625 18.617188 3.0625 18.6875 3.0625 Z M 18.6875 3.0625 "/>
<path style=" stroke:none;fill-rule:nonzero;fill:rgb(40.784314%,40.784314%,40.784314%);fill-opacity:1;" d="M 15.1875 18.0625 C 15.210938 18.121094 15.230469 18.175781 15.253906 18.234375 C 15.410156 18.496094 15.542969 18.554688 15.8125 18.6875 C 15.511719 19.050781 15.1875 19.382812 14.855469 19.714844 C 14.765625 19.804688 14.675781 19.894531 14.585938 19.988281 C 14.5 20.074219 14.5 20.074219 14.410156 20.160156 C 14.359375 20.210938 14.308594 20.261719 14.253906 20.316406 C 14.082031 20.476562 14.027344 20.496094 13.789062 20.519531 C 13.5625 20.5 13.5625 20.5 13.410156 20.402344 C 13.273438 20.1875 13.28125 20.066406 13.3125 19.8125 C 13.417969 19.648438 13.550781 19.519531 13.691406 19.386719 C 13.730469 19.347656 13.769531 19.308594 13.808594 19.269531 C 13.890625 19.191406 13.972656 19.109375 14.054688 19.03125 C 14.179688 18.910156 14.304688 18.785156 14.429688 18.664062 C 14.507812 18.585938 14.589844 18.507812 14.667969 18.429688 C 14.722656 18.375 14.722656 18.375 14.78125 18.316406 C 15.046875 18.0625 15.046875 18.0625 15.1875 18.0625 Z M 15.1875 18.0625 "/>
<path style=" stroke:none;fill-rule:nonzero;fill:rgb(1.960784%,68.627451%,55.686275%);fill-opacity:1;" d="M 16.449219 17.011719 C 16.65625 17.152344 16.789062 17.257812 16.875 17.5 C 16.921875 17.773438 16.941406 18.015625 16.796875 18.257812 C 16.625 18.464844 16.445312 18.667969 16.171875 18.707031 C 15.8125 18.714844 15.585938 18.691406 15.3125 18.4375 C 15.121094 18.167969 15.085938 17.914062 15.09375 17.59375 C 15.148438 17.328125 15.292969 17.167969 15.5 17 C 15.832031 16.808594 16.121094 16.820312 16.449219 17.011719 Z M 16.449219 17.011719 "/>
<path style=" stroke:none;fill-rule:nonzero;fill:rgb(8.627451%,61.568627%,58.823529%);fill-opacity:1;" d="M 26.1875 9.375 C 26.300781 9.503906 26.394531 9.625 26.488281 9.765625 C 26.515625 9.800781 26.539062 9.839844 26.566406 9.875 C 26.753906 10.148438 26.753906 10.148438 26.738281 10.316406 C 26.671875 10.472656 26.601562 10.511719 26.457031 10.597656 C 26.410156 10.625 26.363281 10.652344 26.3125 10.679688 C 26.265625 10.710938 26.214844 10.738281 26.164062 10.765625 C 26.117188 10.792969 26.066406 10.824219 26.015625 10.851562 C 25.652344 11.0625 25.652344 11.0625 25.4375 11.0625 C 25.320312 10.921875 25.214844 10.785156 25.113281 10.632812 C 25.085938 10.59375 25.054688 10.550781 25.027344 10.507812 C 24.8125 10.207031 24.8125 10.207031 24.8125 10.0625 C 24.984375 9.929688 25.175781 9.824219 25.359375 9.710938 C 25.410156 9.679688 25.460938 9.648438 25.515625 9.613281 C 25.566406 9.582031 25.617188 9.550781 25.667969 9.519531 C 25.710938 9.492188 25.757812 9.464844 25.804688 9.4375 C 25.9375 9.375 25.9375 9.375 26.1875 9.375 Z M 26.1875 9.375 "/>
<path style=" stroke:none;fill-rule:nonzero;fill:rgb(8.627451%,61.568627%,58.823529%);fill-opacity:1;" d="M 5.6875 9.5625 C 5.984375 9.664062 6.230469 9.824219 6.488281 9.996094 C 6.554688 10.039062 6.554688 10.039062 6.621094 10.078125 C 6.730469 10.152344 6.832031 10.230469 6.9375 10.3125 C 6.9375 10.519531 6.917969 10.550781 6.800781 10.710938 C 6.773438 10.75 6.746094 10.789062 6.714844 10.828125 C 6.683594 10.867188 6.65625 10.90625 6.625 10.949219 C 6.59375 10.988281 6.566406 11.03125 6.535156 11.074219 C 6.460938 11.175781 6.386719 11.273438 6.3125 11.375 C 5.890625 11.109375 5.476562 10.839844 5.0625 10.5625 C 5.152344 10.304688 5.28125 10.105469 5.445312 9.886719 C 5.492188 9.824219 5.535156 9.765625 5.582031 9.703125 C 5.632812 9.632812 5.632812 9.632812 5.6875 9.5625 Z M 5.6875 9.5625 "/>
<path style=" stroke:none;fill-rule:nonzero;fill:rgb(42.352941%,42.352941%,42.352941%);fill-opacity:1;" d="M 23.902344 16.914062 C 23.949219 16.914062 23.996094 16.910156 24.046875 16.910156 C 24.285156 16.90625 24.402344 16.910156 24.597656 17.054688 C 24.6875 17.1875 24.6875 17.1875 24.679688 17.351562 C 24.625 17.5 24.625 17.5 24.5 17.625 C 24.304688 17.652344 24.105469 17.644531 23.910156 17.644531 C 23.855469 17.644531 23.800781 17.648438 23.746094 17.648438 C 23.667969 17.648438 23.667969 17.648438 23.585938 17.648438 C 23.539062 17.648438 23.492188 17.648438 23.441406 17.648438 C 23.277344 17.617188 23.222656 17.570312 23.125 17.4375 C 23.132812 17.246094 23.132812 17.246094 23.1875 17.0625 C 23.425781 16.902344 23.625 16.914062 23.902344 16.914062 Z M 23.902344 16.914062 "/>
<path style=" stroke:none;fill-rule:nonzero;fill:rgb(11.764706%,63.529412%,60.392157%);fill-opacity:1;" d="M 15.125 17.4375 C 15.144531 17.476562 15.160156 17.511719 15.179688 17.550781 C 15.3125 17.800781 15.488281 17.960938 15.738281 18.089844 C 16 18.136719 16.195312 18.105469 16.4375 18 C 16.621094 17.84375 16.742188 17.699219 16.875 17.5 C 16.933594 18.023438 16.933594 18.023438 16.796875 18.257812 C 16.625 18.460938 16.445312 18.667969 16.171875 18.707031 C 15.8125 18.714844 15.585938 18.691406 15.3125 18.4375 C 15.085938 18.121094 15.105469 17.8125 15.125 17.4375 Z M 15.125 17.4375 "/>
<path style=" stroke:none;fill-rule:nonzero;fill:rgb(42.352941%,42.352941%,42.352941%);fill-opacity:1;" d="M 7.757812 16.914062 C 7.832031 16.914062 7.832031 16.914062 7.90625 16.914062 C 7.957031 16.914062 8.007812 16.917969 8.0625 16.917969 C 8.140625 16.917969 8.140625 16.917969 8.21875 16.917969 C 8.601562 16.921875 8.601562 16.921875 8.8125 17.0625 C 8.832031 17.28125 8.832031 17.28125 8.8125 17.5 C 8.636719 17.675781 8.503906 17.644531 8.261719 17.644531 C 8.207031 17.644531 8.152344 17.644531 8.097656 17.644531 C 8.042969 17.644531 7.988281 17.648438 7.933594 17.648438 C 7.855469 17.648438 7.855469 17.648438 7.773438 17.648438 C 7.726562 17.648438 7.679688 17.648438 7.628906 17.648438 C 7.464844 17.617188 7.410156 17.566406 7.3125 17.4375 C 7.289062 17.28125 7.289062 17.28125 7.3125 17.125 C 7.449219 16.949219 7.539062 16.914062 7.757812 16.914062 Z M 7.757812 16.914062 "/>
<path style=" stroke:none;fill-rule:nonzero;fill:rgb(41.960784%,41.960784%,41.960784%);fill-opacity:1;" d="M 21.4375 22.25 C 21.597656 22.363281 21.730469 22.496094 21.867188 22.636719 C 21.90625 22.671875 21.941406 22.710938 21.980469 22.746094 C 22.25 23.015625 22.25 23.015625 22.25 23.238281 C 22.1875 23.375 22.1875 23.375 22.0625 23.5 C 21.890625 23.527344 21.890625 23.527344 21.6875 23.5 C 21.546875 23.394531 21.441406 23.304688 21.324219 23.179688 C 21.292969 23.148438 21.261719 23.121094 21.230469 23.089844 C 21.03125 22.882812 20.949219 22.726562 20.9375 22.4375 C 21.066406 22.226562 21.203125 22.210938 21.4375 22.25 Z M 21.4375 22.25 "/>
<path style=" stroke:none;fill-rule:nonzero;fill:rgb(41.568627%,41.568627%,41.568627%);fill-opacity:1;" d="M 21.921875 11.035156 C 22.0625 11.0625 22.0625 11.0625 22.179688 11.132812 C 22.25 11.25 22.25 11.25 22.242188 11.421875 C 22.175781 11.671875 22.046875 11.816406 21.863281 11.992188 C 21.832031 12.023438 21.804688 12.054688 21.773438 12.085938 C 21.617188 12.246094 21.523438 12.308594 21.296875 12.335938 C 21.125 12.3125 21.125 12.3125 21.003906 12.238281 C 20.9375 12.125 20.9375 12.125 20.941406 11.984375 C 21.023438 11.738281 21.175781 11.597656 21.359375 11.417969 C 21.390625 11.382812 21.425781 11.347656 21.460938 11.3125 C 21.609375 11.164062 21.710938 11.070312 21.921875 11.035156 Z M 21.921875 11.035156 "/>
<path style=" stroke:none;fill-rule:nonzero;fill:rgb(41.568627%,41.568627%,41.568627%);fill-opacity:1;" d="M 10.25 11.0625 C 10.410156 11.175781 10.542969 11.308594 10.679688 11.449219 C 10.71875 11.484375 10.753906 11.523438 10.792969 11.558594 C 11.0625 11.828125 11.0625 11.828125 11.0625 12.050781 C 11 12.1875 11 12.1875 10.875 12.3125 C 10.703125 12.339844 10.703125 12.339844 10.5 12.3125 C 10.359375 12.207031 10.253906 12.117188 10.136719 11.992188 C 10.105469 11.960938 10.074219 11.933594 10.042969 11.902344 C 9.84375 11.695312 9.761719 11.539062 9.75 11.25 C 9.878906 11.039062 10.015625 11.023438 10.25 11.0625 Z M 10.25 11.0625 "/>
<path style=" stroke:none;fill-rule:nonzero;fill:rgb(41.568627%,41.568627%,41.568627%);fill-opacity:1;" d="M 10.765625 22.25 C 10.9375 22.3125 10.9375 22.3125 11.0625 22.4375 C 11.054688 22.777344 10.910156 22.953125 10.675781 23.179688 C 10.644531 23.210938 10.617188 23.242188 10.585938 23.273438 C 10.429688 23.433594 10.335938 23.496094 10.109375 23.523438 C 9.9375 23.5 9.9375 23.5 9.816406 23.425781 C 9.75 23.3125 9.75 23.3125 9.753906 23.175781 C 9.835938 22.925781 9.984375 22.78125 10.167969 22.601562 C 10.199219 22.566406 10.234375 22.53125 10.265625 22.496094 C 10.4375 22.324219 10.519531 22.25 10.765625 22.25 Z M 10.765625 22.25 "/>
<path style=" stroke:none;fill-rule:nonzero;fill:rgb(40.784314%,40.784314%,40.784314%);fill-opacity:1;" d="M 16 8.609375 C 16.1875 8.625 16.1875 8.625 16.3125 8.75 C 16.328125 8.875 16.328125 8.875 16.328125 9.03125 C 16.328125 9.085938 16.328125 9.140625 16.328125 9.199219 C 16.328125 9.257812 16.328125 9.316406 16.328125 9.375 C 16.328125 9.433594 16.328125 9.492188 16.328125 9.550781 C 16.328125 9.605469 16.328125 9.660156 16.328125 9.71875 C 16.328125 9.769531 16.328125 9.820312 16.328125 9.875 C 16.3125 10 16.3125 10 16.1875 10.125 C 16 10.140625 16 10.140625 15.8125 10.125 C 15.660156 9.972656 15.671875 9.929688 15.671875 9.71875 C 15.671875 9.664062 15.671875 9.609375 15.671875 9.550781 C 15.671875 9.464844 15.671875 9.464844 15.671875 9.375 C 15.671875 9.316406 15.671875 9.257812 15.671875 9.199219 C 15.671875 9.144531 15.671875 9.089844 15.671875 9.03125 C 15.671875 8.980469 15.671875 8.929688 15.671875 8.875 C 15.699219 8.65625 15.785156 8.628906 16 8.609375 Z M 16 8.609375 "/>
<path style=" stroke:none;fill-rule:nonzero;fill:rgb(40.392157%,40.392157%,40.392157%);fill-opacity:1;" d="M 16.070312 24.453125 C 16.160156 24.476562 16.160156 24.476562 16.25 24.5 C 16.359375 24.722656 16.324219 24.976562 16.324219 25.21875 C 16.324219 25.273438 16.324219 25.328125 16.328125 25.386719 C 16.328125 25.464844 16.328125 25.464844 16.328125 25.546875 C 16.328125 25.59375 16.328125 25.640625 16.328125 25.691406 C 16.3125 25.8125 16.3125 25.8125 16.1875 25.9375 C 16 25.953125 16 25.953125 15.8125 25.9375 C 15.632812 25.757812 15.667969 25.609375 15.667969 25.363281 C 15.667969 25.304688 15.667969 25.246094 15.667969 25.1875 C 15.667969 25.128906 15.664062 25.070312 15.664062 25.011719 C 15.664062 24.957031 15.664062 24.902344 15.664062 24.84375 C 15.664062 24.792969 15.664062 24.742188 15.664062 24.6875 C 15.675781 24.625 15.675781 24.625 15.6875 24.5625 C 15.875 24.4375 15.875 24.4375 16.070312 24.453125 Z M 16.070312 24.453125 "/>
</g>
</svg>
